<?xml version="1.0" encoding="UTF-8" standalone="no"?>
<!-- Created with Inkscape (http://www.inkscape.org/) -->

<svg
   width="512"
   height="512"
   viewBox="0 0 512 512"
   version="1.1"
   id="svg1"
   inkscape:version="1.3.2 (091e20e, 2023-11-25, custom)"
   sodipodi:docname="trienv_compact.svg"
   inkscape:export-filename="trienv_logo.png"
   inkscape:export-xdpi="96"
   inkscape:export-ydpi="96"
   xml:space="preserve"
   xmlns:inkscape="http://www.inkscape.org/namespaces/inkscape"
   xmlns:sodipodi="http://sodipodi.sourceforge.net/DTD/sodipodi-0.dtd"
   xmlns:xlink="http://www.w3.org/1999/xlink"
   xmlns="http://www.w3.org/2000/svg"
   xmlns:svg="http://www.w3.org/2000/svg"><sodipodi:namedview
     id="namedview1"
     pagecolor="#505050"
     bordercolor="#ffffff"
     borderopacity="1"
     inkscape:showpageshadow="0"
     inkscape:pageopacity="0"
     inkscape:pagecheckerboard="1"
     inkscape:deskcolor="#505050"
     inkscape:document-units="px"
     inkscape:zoom="1.1228082"
     inkscape:cx="156.30452"
     inkscape:cy="321.06997"
     inkscape:window-width="1920"
     inkscape:window-height="1009"
     inkscape:window-x="-8"
     inkscape:window-y="-8"
     inkscape:window-maximized="1"
     inkscape:current-layer="layer1"
     showguides="true"><sodipodi:guide
       position="256,-146"
       orientation="0,1"
       id="guide6"
       inkscape:locked="false"
       inkscape:label=""
       inkscape:color="rgb(0,134,229)" /><sodipodi:guide
       position="256,-146"
       orientation="-1,0"
       id="guide7"
       inkscape:locked="false"
       inkscape:label=""
       inkscape:color="rgb(0,134,229)" /><sodipodi:guide
       position="256,144"
       orientation="0,1"
       id="guide2"
       inkscape:locked="false"
       inkscape:label=""
       inkscape:color="rgb(0,134,229)" /></sodipodi:namedview><defs
     id="defs1"><linearGradient
       id="linearGradient7"
       inkscape:collect="always"><stop
         style="stop-color:#1ce3f4;stop-opacity:1;"
         offset="0"
         id="stop8" /><stop
         style="stop-color:#145465;stop-opacity:1;"
         offset="1"
         id="stop9" /></linearGradient><linearGradient
       id="linearGradient6"
       inkscape:collect="always"><stop
         style="stop-color:#a2faff;stop-opacity:1;"
         offset="0"
         id="stop6" /><stop
         style="stop-color:#039eb7;stop-opacity:1;"
         offset="1"
         id="stop7" /></linearGradient><linearGradient
       id="linearGradient10"
       inkscape:collect="always"><stop
         style="stop-color:#cd2741;stop-opacity:1;"
         offset="0"
         id="stop11" /><stop
         style="stop-color:#0ba9c2;stop-opacity:1;"
         offset="1"
         id="stop12" /></linearGradient><rect
       x="25.820417"
       y="188.30013"
       width="426.98154"
       height="153.0332"
       id="rect1" /><rect
       x="25.820417"
       y="188.30013"
       width="426.98154"
       height="153.0332"
       id="rect7" /><radialGradient
       inkscape:collect="always"
       xlink:href="#linearGradient10"
       id="radialGradient12"
       cx="217.58112"
       cy="255.62041"
       fx="217.58112"
       fy="255.62041"
       r="188.48283"
       gradientTransform="matrix(1,0,0,0.21481479,0,200.70936)"
       gradientUnits="userSpaceOnUse" /><linearGradient
       inkscape:collect="always"
       xlink:href="#linearGradient6"
       id="linearGradient5"
       x1="256"
       y1="0"
       x2="0"
       y2="368"
       gradientUnits="userSpaceOnUse" /><linearGradient
       inkscape:collect="always"
       xlink:href="#linearGradient7"
       id="linearGradient9"
       x1="256"
       y1="0"
       x2="512"
       y2="368"
       gradientUnits="userSpaceOnUse" /><linearGradient
       id="linearGradient12"
       inkscape:collect="always"><stop
         style="stop-color:#51fff9;stop-opacity:1;"
         offset="0"
         id="stop13" /><stop
         style="stop-color:#008aa3;stop-opacity:1;"
         offset="1"
         id="stop14" /></linearGradient><rect
       x="25.820417"
       y="188.30013"
       width="426.98154"
       height="153.0332"
       id="rect1-0" /><rect
       x="25.820417"
       y="188.30013"
       width="426.98154"
       height="153.0332"
       id="rect7-4" /><radialGradient
       inkscape:collect="always"
       xlink:href="#linearGradient10"
       id="radialGradient12-7"
       cx="217.58112"
       cy="255.62041"
       fx="217.58112"
       fy="255.62041"
       r="188.48283"
       gradientTransform="matrix(1,0,0,0.21481479,0,200.70936)"
       gradientUnits="userSpaceOnUse" /><linearGradient
       inkscape:collect="always"
       xlink:href="#linearGradient12"
       id="linearGradient14"
       x1="29.098274"
       y1="215.1315"
       x2="406.06396"
       y2="296.10931"
       gradientUnits="userSpaceOnUse"
       gradientTransform="matrix(0.625244,0,0,0.625244,95.93754,443.07439)" /></defs><g
     inkscape:label="Layer 1"
     inkscape:groupmode="layer"
     id="layer1"><path
       id="path3"
       style="fill:url(#linearGradient5);fill-opacity:1;stroke-width:2"
       d="M 256,0 V 440 L 0,368 Z"
       sodipodi:nodetypes="cccc" /><path
       id="path4"
       style="fill:url(#linearGradient9);fill-opacity:1;stroke-width:2"
       d="M 256,0 512,368.00618 256,440 Z"
       sodipodi:nodetypes="cccc" /><path
       d="m 117.27921,510.50168 h 10.51618 v -57.7359 h 21.44475 v -9.69138 h -53.3026 v 9.69138 h 21.34167 z m 41.65223,0 h 10.51618 v -24.12536 h 16.08357 l 16.08357,24.12536 h 12.57817 l -17.83626,-25.05327 c 10.61927,-2.68058 15.36187,-10.61927 15.36187,-20.72305 0,-12.47508 -7.21699,-21.65096 -23.81606,-21.65096 h -28.97104 z m 10.51618,-33.81675 v -23.91915 h 18.55796 c 9.69137,0 13.09368,5.05189 13.09368,11.95958 0,6.80458 -3.2992,11.95957 -13.09368,11.95957 z m 54.33368,33.81675 h 10.51617 V 443.0744 H 223.7813 Z m 48.04447,1.3403 c 11.85648,0 21.13546,-6.0829 25.05325,-15.56808 h -10.82547 c -2.98991,4.43329 -7.62939,6.49528 -14.22778,6.49528 -8.86658,0 -15.67117,-5.05188 -17.11457,-14.12467 h 44.33292 v -3.60848 c 0,-15.46498 -11.13478,-26.80595 -27.21835,-26.80595 -16.08358,0 -27.42455,11.34097 -27.42455,26.80595 0,15.46496 11.34097,26.80595 27.42455,26.80595 z M 255.0205,479.88103 c 1.9589,-8.04178 8.35108,-12.57817 16.80527,-12.57817 8.24798,0 14.94947,4.43329 16.90836,12.57817 z m 52.06534,30.62065 h 9.79448 v -26.49666 c 0,-11.03168 6.08288,-16.70216 15.36187,-16.70216 9.27898,0 15.36188,5.67048 15.36188,16.70216 v 26.49666 h 9.79447 v -26.49666 c 0,-17.11456 -10.10378,-25.77494 -25.15635,-25.77494 -15.05257,0 -25.15635,8.76348 -25.15635,25.77494 z m 75.88159,0 h 11.85648 l 21.23855,-50.9313 h -10.41307 l -16.59907,42.16781 -16.59907,-42.16781 h -10.72238 z"
       id="text7"
       style="font-size:121.406px;font-family:'All Round Gothic';-inkscape-font-specification:'All Round Gothic, Normal';white-space:pre;fill:url(#linearGradient14);stroke-width:1.69843"
       aria-label="TRIenv" /></g></svg>
